<svg xmlns="http://www.w3.org/2000/svg" viewBox="0 0 220 220" role="img" aria-label="Purple hourglass">
  <defs>
    <linearGradient id="sand" x1="0" x2="1" y1="0" y2="1">
      <stop offset="0" stop-color="#ffd780"/>
      <stop offset=".38" stop-color="#ff80d7"/>
      <stop offset="1" stop-color="#9c4cff"/>
    </linearGradient>
    <linearGradient id="glass" x1="0" x2="1" y1="0" y2="1">
      <stop offset="0" stop-color="#ffe8bf" stop-opacity=".55"/>
      <stop offset=".42" stop-color="#cd79ff" stop-opacity=".18"/>
      <stop offset="1" stop-color="#ffffff" stop-opacity=".45"/>
    </linearGradient>
    <filter id="glow" x="-30%" y="-30%" width="160%" height="160%">
      <feGaussianBlur stdDeviation="5" result="blur"/>
      <feMerge>
        <feMergeNode in="blur"/>
        <feMergeNode in="SourceGraphic"/>
      </feMerge>
    </filter>
  </defs>
  <ellipse cx="110" cy="204" rx="78" ry="10" fill="#8d44ff" opacity=".28"/>
  <path d="M59 28h102M59 192h102" stroke="#ffc66d" stroke-width="12" stroke-linecap="round"/>
  <path d="M70 40c0 46 36 49 36 70s-36 24-36 70h80c0-46-36-49-36-70s36-24 36-70z" fill="#1b1028" stroke="url(#glass)" stroke-width="6"/>
  <path d="M84 57h52c-6 20-18 31-26 42-8-11-20-22-26-42z" fill="url(#sand)" filter="url(#glow)"/>
  <path d="M109 103c3 10 3 20 0 32" stroke="#ffb6f6" stroke-width="5" stroke-linecap="round" filter="url(#glow)"/>
  <path d="M79 177c10-31 51-31 62 0z" fill="url(#sand)" filter="url(#glow)"/>
  <g fill="#ff93dd" opacity=".78">
    <circle cx="48" cy="151" r="3"/>
    <circle cx="178" cy="68" r="3"/>
    <circle cx="170" cy="155" r="2"/>
    <circle cx="35" cy="93" r="2"/>
  </g>
</svg>
